<svg width="134" height="125" viewBox="0 0 134 125" fill="none" xmlns="http://www.w3.org/2000/svg">
<circle cx="68" cy="63" r="62" fill="#95BCB5"/>
<path d="M30.8856 16.6142C30.9266 16.5614 30.9718 16.5067 31.0208 16.4502C29.0815 8.65674 58.9441 10.9155 62.6571 10.9155C65.9041 10.9155 68.9438 11.4164 72.0805 11.5859C76.5508 11.8275 82.3071 11.8365 86.197 14.2677C94.9383 19.731 105.356 24.7051 111.786 33.04C117.817 40.8581 122.696 48.2139 123.034 58.3678C123.29 66.0344 120.625 72.7838 119.011 80.0455C115.957 93.7901 103.606 103.125 91.4861 108.427C84.3591 111.546 74.0145 111.482 66.3817 111.482C57.084 111.482 48.2781 109.637 39.8993 105.448C26.3758 98.686 12.8658 85.068 11.1075 69.2439C9.65512 56.1722 13.2563 40.957 20.1585 29.8368C23.2677 24.8275 27.3776 21.1245 30.8856 16.6142Z" fill="#95BCB5"/>
<path d="M41.2402 12.2564C39.0822 10.3382 32.3573 14.722 30.8856 16.6142C27.3776 21.1245 23.2677 24.8275 20.1585 29.8368C13.2563 40.957 9.65512 56.1722 11.1075 69.2439C12.8658 85.068 26.3758 98.686 39.8993 105.448C48.2781 109.637 57.084 111.482 66.3817 111.482C74.0145 111.482 84.3591 111.546 91.4861 108.427C103.606 103.125 115.957 93.7901 119.011 80.0455C120.625 72.7838 123.29 66.0344 123.034 58.3678C122.696 48.2139 117.817 40.8581 111.786 33.04C105.356 24.7051 94.9383 19.731 86.197 14.2677C82.3071 11.8365 76.5508 11.8275 72.0805 11.5859C68.9438 11.4164 65.9041 10.9155 62.6571 10.9155C58.8669 10.9155 27.8285 8.56184 31.1835 16.9494" stroke="#95BCB5" stroke-width="20" stroke-linecap="round"/>
<path d="M56.7569 39.1797C49.355 39.1797 41 42.7232 41 51.5601" stroke="black" stroke-width="3" stroke-linecap="round"/>
<path d="M77.2002 38.1194C76.12 37.5022 80.3732 37.0195 81.0296 37.0195C82.562 37.0195 84.1013 36.9757 85.633 37.0195C87.5021 37.0729 89.1507 37.9706 90.3994 39.2193C92.3073 41.1272 95.5325 43.4843 95.5325 46.5523" stroke="black" stroke-width="3" stroke-linecap="round"/>
<circle cx="57" cy="55" r="8" fill="white"/>
<ellipse cx="60" cy="56.5" rx="5" ry="6.5" fill="black"/>
<circle cx="78" cy="55" r="8" fill="white"/>
<ellipse cx="75" cy="56.5" rx="5" ry="6.5" fill="black"/>
<path d="M61.208 74.0398C60.856 73.9392 62.3817 70.8028 63.29 71.7111C63.5339 71.955 63.6404 72.8354 64.1228 72.621C64.6297 72.3957 64.9725 71.7017 65.5108 71.4026C66.2896 70.97 66.8645 72.2813 67.8704 71.3872C68.3586 70.9532 69.2591 71.5414 69.8135 71.5414" stroke="black" stroke-width="3" stroke-linecap="round"/>
<path d="M73.9478 94.0744C68.9377 89.5653 57.5942 87.2057 51.1116 88.4118C45.7147 89.4159 48.1621 94.6567 52.2255 95.5597C53.8185 95.9137 66.325 96.4128 64.8504 97.602C62.5774 99.435 60.1681 100.239 58.538 102.8C57.1694 104.951 62.3154 104.1 63.5044 104.1C71.0311 104.1 58.2299 108.92 61.23 110.32C63.8601 111.547 67.3582 109.174 69.3991 110.134C69.9268 110.382 69.6167 113.274 70.6059 112.037C71.8643 110.464 82.0657 122.189 84.5 123" stroke="black" stroke-width="3" stroke-linecap="round"/>
<path d="M78.1245 93.2381C75.9988 91.3486 73.2946 98.0118 76.8249 89.9426C78.8282 85.3636 81.3105 84.6507 84.8083 81.5415C87.0172 79.578 89.5723 79.2556 91.0743 81.9592C92.308 84.1798 88.6456 87.8758 88.1038 90.3139C86.6698 96.7667 84.9437 104.208 91.0743 109.112C95.4669 112.626 106 103.609 106 109.112" stroke="black" stroke-width="3" stroke-linecap="round"/>
</svg>
