<svg width="133" height="125" viewBox="0 0 133 125" fill="none" xmlns="http://www.w3.org/2000/svg">
<circle cx="67.4521" cy="63" r="62" fill="#000"/>
<path d="M30.3367 16.6142C30.3778 16.5614 30.423 16.5067 30.472 16.4502C28.5327 8.65674 58.3952 10.9155 62.1082 10.9155C65.3552 10.9155 68.395 11.4164 71.5317 11.5859C76.002 11.8275 81.7583 11.8365 85.6482 14.2677C94.3895 19.731 104.807 24.7051 111.237 33.04C117.268 40.8581 122.147 48.2139 122.485 58.3678C122.741 66.0344 120.076 72.7838 118.463 80.0455C115.408 93.7901 103.057 103.125 90.9372 108.427C83.8103 111.546 73.4657 111.482 65.8329 111.482C56.5352 111.482 47.7293 109.637 39.3505 105.448C25.827 98.686 12.3169 85.068 10.5587 69.2439C9.10629 56.1722 12.7075 40.957 19.6097 29.8368C22.7189 24.8275 26.8288 21.1245 30.3367 16.6142Z" fill="#000"/>
<path d="M40.6913 12.2564C38.5334 10.3382 31.8084 14.722 30.3367 16.6142C26.8288 21.1245 22.7189 24.8275 19.6097 29.8368C12.7075 40.957 9.10629 56.1722 10.5587 69.2439C12.3169 85.068 25.827 98.686 39.3505 105.448C47.7293 109.637 56.5352 111.482 65.8329 111.482C73.4657 111.482 83.8103 111.546 90.9372 108.427C103.057 103.125 115.408 93.7901 118.463 80.0455C120.076 72.7838 122.741 66.0344 122.485 58.3678C122.147 48.2139 117.268 40.8581 111.237 33.04C104.807 24.7051 94.3895 19.731 85.6482 14.2677C81.7583 11.8365 76.002 11.8275 71.5317 11.5859C68.395 11.4164 65.3552 10.9155 62.1082 10.9155C58.318 10.9155 27.2797 8.56184 30.6347 16.9494" stroke="#000" stroke-width="20" stroke-linecap="round"/>
<path d="M56.2091 39.1797C48.8072 39.1797 40.4521 42.7232 40.4521 51.5601" stroke="black" stroke-width="3" stroke-linecap="round"/>
<path d="M76.6523 38.1194C75.5722 37.5022 79.8254 37.0195 80.4817 37.0195C82.0142 37.0195 83.5534 36.9757 85.0852 37.0195C86.9543 37.0729 88.6029 37.9706 89.8516 39.2193C91.7594 41.1272 94.9846 43.4843 94.9846 46.5523" stroke="black" stroke-width="3" stroke-linecap="round"/>
<circle cx="56.4521" cy="55" r="8" fill="white"/>
<ellipse cx="59.4521" cy="56.5" rx="5" ry="6.5" fill="black"/>
<circle cx="77.4521" cy="55" r="8" fill="white"/>
<ellipse cx="74.4521" cy="56.5" rx="5" ry="6.5" fill="black"/>
<path d="M20.4278 70.9916C20.4278 73.6943 20.4278 76.397 20.4278 79.0998C20.4278 81.5998 21.0515 84.0152 21.0515 86.515C21.0515 90.4015 21.9777 94.3855 22.3163 98.2788C22.7106 102.814 23.9629 107.197 24.7765 111.671C24.9703 112.737 25.4175 114.052 25.4175 115.119C25.4175 117.714 27.4835 117.146 29.5409 117.146C37.6321 117.146 45.5119 115.454 53.5537 115.275C56.5187 115.209 59.4931 115.275 62.4589 115.275C65.8967 115.275 69.9208 114.699 73.2872 115.431C76.7466 116.183 80.8018 116.834 84.3407 116.834C87.3671 116.834 90.4287 117.77 93.4191 117.77C97.2399 117.77 100.91 116.522 104.629 116.522C106.299 116.522 108.386 116.306 109.93 115.656C110.724 115.322 111.748 115.904 112.494 115.344C112.993 114.97 112.643 114.023 112.806 113.473C113.532 111.022 113.049 107.823 113.049 105.296C113.049 101.12 113.21 96.9126 114.14 92.8214C115.439 87.1075 115.268 80.2033 114.625 74.422C114.428 72.6442 114.608 70.7548 114.608 68.9645C114.608 66.6083 110.374 67.5793 108.925 67.5612C103.458 67.4928 98.0143 66.9375 92.5355 66.9375C88.3313 66.9375 84.127 66.9375 79.9227 66.9375C72.4094 66.9375 64.896 66.9375 57.3826 66.9375C49.6989 66.9375 41.9192 66.6215 34.288 67.232C32.5198 67.3734 30.735 67.3674 28.9865 67.7171C27.4175 68.0309 25.503 67.7682 24.0141 68.3408C23.3848 68.5829 19.8758 69.1563 20.4278 69.4323" stroke="black" stroke-width="3" stroke-linecap="round"/>
<path d="M129.577 79.0996C129.577 83.1049 132.389 90.1239 127.324 92.2668C126.009 92.8235 116.167 95.6898 116.167 92.5094" stroke="black" stroke-width="3" stroke-linecap="round"/>
<path d="M2.02824 82.2183C2.02824 83.8122 1.72297 87.0261 3.11973 88.1435C3.69267 88.6018 3.88153 89.4157 4.67901 89.8587C5.65497 90.4009 6.66476 90.7043 7.64162 91.1927C9.3304 92.0371 11.8475 91.5739 13.7228 91.5739C15.9045 91.5739 17.1441 90.6933 19.1802 90.0146" stroke="black" stroke-width="3" stroke-linecap="round"/>
<path d="M20.1162 90.0145C20.1162 87.85 21.9885 88.0548 22.8536 86.5841C23.5104 85.4675 24.3271 83.4656 22.4551 83.4656C21.4958 83.4656 22.8403 84.7514 23.0788 85.1808C23.4087 85.7746 23.272 86.8489 23.2348 87.5197C23.1378 89.2642 19.0812 91.1875 23.3907 89.8759C25.0302 89.3769 27.2895 88.7671 29.0041 88.7671C29.7575 88.7671 27.9233 89.1197 27.6007 89.2349C26.5632 89.6054 25.5992 90.0145 24.4822 90.0145C24.0664 90.0145 23.6506 90.0145 23.2348 90.0145C22.8096 90.0145 23.7151 90.0121 23.8585 90.0838C25.0529 90.681 25.277 91.9668 26.0414 92.8212C26.5758 93.4184 27.1699 94.8943 25.8855 93.8954C24.631 92.9196 24.8165 90.7571 23.2348 89.7027" stroke="black" stroke-width="3" stroke-linecap="round"/>
<path d="M112.737 89.7026C112.737 91.0382 108.885 92.1305 107.747 92.1975C106.219 92.2874 107.859 92.6555 108.527 92.8039C109.842 93.0961 110.872 94.1123 112.252 94.3631C115.233 94.9052 111.49 95.8006 110.398 96.4075C109.447 96.9355 108.775 97.2274 110.242 96.4941C111.191 96.0195 112.385 95.4343 112.737 94.3805" stroke="black" stroke-width="3" stroke-linecap="round"/>
<path d="M39 63L97 121M39 121L97 63" stroke="#262626" stroke-width="3.5" stroke-linecap="round" stroke-linejoin="round"/>
</svg>
