<svg width="23" height="25" viewBox="0 0 23 25" fill="none" xmlns="http://www.w3.org/2000/svg">
<path d="M21.0833 1.92308H18.2083V0.961538C18.2083 0.706523 18.1074 0.461951 17.9276 0.281628C17.7479 0.101305 17.5042 0 17.25 0C16.9958 0 16.7521 0.101305 16.5724 0.281628C16.3926 0.461951 16.2917 0.706523 16.2917 0.961538V1.92308H6.70833V0.961538C6.70833 0.706523 6.60737 0.461951 6.42764 0.281628C6.24792 0.101305 6.00417 0 5.75 0C5.49583 0 5.25208 0.101305 5.07236 0.281628C4.89263 0.461951 4.79167 0.706523 4.79167 0.961538V1.92308H1.91667C1.40833 1.92308 0.920823 2.12569 0.561379 2.48633C0.201934 2.84698 0 3.33612 0 3.84615V23.0769C0 23.587 0.201934 24.0761 0.561379 24.4367C0.920823 24.7974 1.40833 25 1.91667 25H21.0833C21.5917 25 22.0792 24.7974 22.4386 24.4367C22.7981 24.0761 23 23.587 23 23.0769V3.84615C23 3.33612 22.7981 2.84698 22.4386 2.48633C22.0792 2.12569 21.5917 1.92308 21.0833 1.92308ZM4.79167 3.84615V4.80769C4.79167 5.06271 4.89263 5.30728 5.07236 5.4876C5.25208 5.66793 5.49583 5.76923 5.75 5.76923C6.00417 5.76923 6.24792 5.66793 6.42764 5.4876C6.60737 5.30728 6.70833 5.06271 6.70833 4.80769V3.84615H16.2917V4.80769C16.2917 5.06271 16.3926 5.30728 16.5724 5.4876C16.7521 5.66793 16.9958 5.76923 17.25 5.76923C17.5042 5.76923 17.7479 5.66793 17.9276 5.4876C18.1074 5.30728 18.2083 5.06271 18.2083 4.80769V3.84615H21.0833V7.69231H1.91667V3.84615H4.79167ZM21.0833 23.0769H1.91667V9.61538H21.0833V23.0769ZM9.58333 12.5V20.1923C9.58333 20.4473 9.48237 20.6919 9.30264 20.8722C9.12292 21.0525 8.87917 21.1538 8.625 21.1538C8.37083 21.1538 8.12708 21.0525 7.94736 20.8722C7.76763 20.6919 7.66667 20.4473 7.66667 20.1923V14.0553L7.13719 14.3221C6.90971 14.4362 6.64637 14.455 6.40509 14.3743C6.16381 14.2936 5.96436 14.1201 5.85062 13.8918C5.73689 13.6636 5.71817 13.3994 5.7986 13.1573C5.87902 12.9152 6.052 12.7151 6.27948 12.601L8.19615 11.6394C8.34231 11.566 8.50474 11.5314 8.66802 11.5387C8.83129 11.5461 8.98997 11.5952 9.12899 11.6815C9.268 11.7677 9.38272 11.8882 9.46224 12.0315C9.54177 12.1747 9.58345 12.336 9.58333 12.5ZM16.6702 16.1599L14.375 19.2308H16.2917C16.5458 19.2308 16.7896 19.3321 16.9693 19.5124C17.149 19.6927 17.25 19.9373 17.25 20.1923C17.25 20.4473 17.149 20.6919 16.9693 20.8722C16.7896 21.0525 16.5458 21.1538 16.2917 21.1538H12.4583C12.2804 21.1538 12.1059 21.1041 11.9545 21.0102C11.8031 20.9164 11.6808 20.782 11.6012 20.6223C11.5216 20.4626 11.4879 20.2838 11.5039 20.106C11.5199 19.9281 11.5849 19.7582 11.6917 19.6154L15.1393 15.0036C15.2177 14.8989 15.2739 14.7791 15.3046 14.6518C15.3352 14.5244 15.3396 14.3922 15.3175 14.2631C15.2953 14.1339 15.2471 14.0107 15.1758 13.901C15.1045 13.7913 15.0116 13.6973 14.9028 13.6249C14.794 13.5524 14.6716 13.5031 14.5431 13.4798C14.4146 13.4566 14.2827 13.4599 14.1556 13.4897C14.0284 13.5194 13.9086 13.5749 13.8036 13.6527C13.6986 13.7305 13.6105 13.8291 13.5448 13.9423C13.4838 14.0551 13.4008 14.1546 13.3008 14.2347C13.2008 14.3149 13.0859 14.3741 12.9627 14.4089C12.8395 14.4438 12.7106 14.4535 12.5836 14.4376C12.4567 14.4216 12.3341 14.3803 12.2233 14.3161C12.1125 14.2519 12.0156 14.166 11.9384 14.0636C11.8612 13.9612 11.8052 13.8443 11.7738 13.7199C11.7423 13.5954 11.736 13.4659 11.7552 13.339C11.7744 13.212 11.8188 13.0902 11.8857 12.9808C12.2023 12.4311 12.6907 12.0016 13.2753 11.7588C13.8599 11.516 14.508 11.4734 15.1192 11.6377C15.7303 11.8021 16.2704 12.1641 16.6556 12.6676C17.0409 13.1712 17.2498 13.7883 17.25 14.4231C17.252 15.0502 17.0483 15.6605 16.6702 16.1599Z" fill="#000"/>
</svg>
