<svg width="134" height="125" viewBox="0 0 134 125" fill="none" xmlns="http://www.w3.org/2000/svg">
<circle cx="68" cy="63" r="62" fill="#F3F0F5"/>
<path d="M30.8856 16.6142C30.9266 16.5614 30.9718 16.5067 31.0208 16.4502C29.0815 8.65674 58.9441 10.9155 62.6571 10.9155C65.9041 10.9155 68.9438 11.4164 72.0805 11.5859C76.5508 11.8275 82.3071 11.8365 86.197 14.2677C94.9383 19.731 105.356 24.7051 111.786 33.04C117.817 40.8581 122.696 48.2139 123.034 58.3678C123.29 66.0344 120.625 72.7838 119.011 80.0455C115.957 93.7901 103.606 103.125 91.4861 108.427C84.3591 111.546 74.0145 111.482 66.3817 111.482C57.084 111.482 48.2781 109.637 39.8993 105.448C26.3758 98.686 12.8658 85.068 11.1075 69.2439C9.65512 56.1722 13.2563 40.957 20.1585 29.8368C23.2677 24.8275 27.3776 21.1245 30.8856 16.6142Z" fill="#F3F0F5"/>
<path d="M41.2402 12.2564C39.0822 10.3382 32.3573 14.722 30.8856 16.6142C27.3776 21.1245 23.2677 24.8275 20.1585 29.8368C13.2563 40.957 9.65512 56.1722 11.1075 69.2439C12.8658 85.068 26.3758 98.686 39.8993 105.448C48.2781 109.637 57.084 111.482 66.3817 111.482C74.0145 111.482 84.3591 111.546 91.4861 108.427C103.606 103.125 115.957 93.7901 119.011 80.0455C120.625 72.7838 123.29 66.0344 123.034 58.3678C122.696 48.2139 117.817 40.8581 111.786 33.04C105.356 24.7051 94.9383 19.731 86.197 14.2677C82.3071 11.8365 76.5508 11.8275 72.0805 11.5859C68.9438 11.4164 65.9041 10.9155 62.6571 10.9155C58.8669 10.9155 27.8285 8.56184 31.1835 16.9494" stroke="#F3F0F5" stroke-width="20" stroke-linecap="round"/>
</svg>
