<svg width="20" height="20" viewBox="0 0 20 20" fill="none" xmlns="http://www.w3.org/2000/svg">
<path fill-rule="evenodd" clip-rule="evenodd" d="M10.8333 10.8333V16.6667C10.8333 16.8877 10.7455 17.0996 10.5893 17.2559C10.433 17.4122 10.221 17.5 10 17.5C9.77899 17.5 9.56702 17.4122 9.41074 17.2559C9.25446 17.0996 9.16667 16.8877 9.16667 16.6667V10.8333H3.33333C3.11232 10.8333 2.90036 10.7455 2.74408 10.5893C2.5878 10.433 2.5 10.221 2.5 10C2.5 9.77899 2.5878 9.56702 2.74408 9.41074C2.90036 9.25446 3.11232 9.16667 3.33333 9.16667H9.16667V3.33333C9.16667 3.11232 9.25446 2.90036 9.41074 2.74408C9.56702 2.5878 9.77899 2.5 10 2.5C10.221 2.5 10.433 2.5878 10.5893 2.74408C10.7455 2.90036 10.8333 3.11232 10.8333 3.33333V9.16667H16.6667C16.8877 9.16667 17.0996 9.25446 17.2559 9.41074C17.4122 9.56702 17.5 9.77899 17.5 10C17.5 10.221 17.4122 10.433 17.2559 10.5893C17.0996 10.7455 16.8877 10.8333 16.6667 10.8333H10.8333Z" fill="#000"/>
</svg>
