<svg width="134" height="125" viewBox="0 0 134 125" fill="none" xmlns="http://www.w3.org/2000/svg">
<circle cx="68" cy="63" r="62" fill="#000"/>
<path d="M30.8856 16.6142C30.9266 16.5614 30.9718 16.5067 31.0208 16.4502C29.0815 8.65674 58.9441 10.9155 62.6571 10.9155C65.9041 10.9155 68.9438 11.4164 72.0805 11.5859C76.5508 11.8275 82.3071 11.8365 86.197 14.2677C94.9383 19.731 105.356 24.7051 111.786 33.04C117.817 40.8581 122.696 48.2139 123.034 58.3678C123.29 66.0344 120.625 72.7838 119.011 80.0455C115.957 93.7901 103.606 103.125 91.4861 108.427C84.3591 111.546 74.0145 111.482 66.3817 111.482C57.084 111.482 48.2781 109.637 39.8993 105.448C26.3758 98.686 12.8658 85.068 11.1075 69.2439C9.65512 56.1722 13.2563 40.957 20.1585 29.8368C23.2677 24.8275 27.3776 21.1245 30.8856 16.6142Z" fill="#000"/>
<path d="M41.2402 12.2564C39.0822 10.3382 32.3573 14.722 30.8856 16.6142C27.3776 21.1245 23.2677 24.8275 20.1585 29.8368C13.2563 40.957 9.65512 56.1722 11.1075 69.2439C12.8658 85.068 26.3758 98.686 39.8993 105.448C48.2781 109.637 57.084 111.482 66.3817 111.482C74.0145 111.482 84.3591 111.546 91.4861 108.427C103.606 103.125 115.957 93.7901 119.011 80.0455C120.625 72.7838 123.29 66.0344 123.034 58.3678C122.696 48.2139 117.817 40.8581 111.786 33.04C105.356 24.7051 94.9383 19.731 86.197 14.2677C82.3071 11.8365 76.5508 11.8275 72.0805 11.5859C68.9438 11.4164 65.9041 10.9155 62.6571 10.9155C58.8669 10.9155 27.8285 8.56184 31.1835 16.9494" stroke="#000" stroke-width="20" stroke-linecap="round"/>
<path d="M55.7569 39.1797C48.355 39.1797 40 42.7232 40 51.5601" stroke="black" stroke-width="3" stroke-linecap="round"/>
<path d="M76.2002 38.1194C75.12 37.5022 79.3732 37.0195 80.0296 37.0195C81.562 37.0195 83.1013 36.9757 84.633 37.0195C86.5021 37.0729 88.1507 37.9706 89.3994 39.2193C91.3073 41.1272 94.5325 43.4843 94.5325 46.5523" stroke="black" stroke-width="3" stroke-linecap="round"/>
<circle cx="56" cy="55" r="8" fill="white"/>
<ellipse cx="59" cy="56.5" rx="5" ry="6.5" fill="black"/>
<circle cx="77" cy="55" r="8" fill="white"/>
<ellipse cx="74" cy="56.5" rx="5" ry="6.5" fill="black"/>
<path d="M47.96 69.5917C55.8612 73.3344 65.416 74.5256 74.0739 73.1936C79.8865 72.2993 84.0517 69.2017 89.0604 66.6973" stroke="black" stroke-width="3" stroke-linecap="round"/>
</svg>
