<svg width="26" height="26" viewBox="0 0 26 26" fill="none" xmlns="http://www.w3.org/2000/svg">
<path d="M18.4167 2.16667H21.6667C21.954 2.16667 22.2295 2.2808 22.4327 2.48397C22.6359 2.68713 22.75 2.96268 22.75 3.25V22.75C22.75 23.0373 22.6359 23.3129 22.4327 23.516C22.2295 23.7192 21.954 23.8333 21.6667 23.8333H4.33333C4.04602 23.8333 3.77047 23.7192 3.5673 23.516C3.36414 23.3129 3.25 23.0373 3.25 22.75V3.25C3.25 2.96268 3.36414 2.68713 3.5673 2.48397C3.77047 2.2808 4.04602 2.16667 4.33333 2.16667H7.58333V0H9.75V2.16667H16.25V0H18.4167V2.16667ZM18.4167 4.33333V6.5H16.25V4.33333H9.75V6.5H7.58333V4.33333H5.41667V21.6667H20.5833V4.33333H18.4167ZM7.58333 8.66667H18.4167V10.8333H7.58333V8.66667ZM7.58333 13H18.4167V15.1667H7.58333V13Z" fill="#000"/>
</svg>
